<?xml version="1.0" encoding="UTF-8" standalone="no"?>
<!DOCTYPE svg PUBLIC "-//W3C//DTD SVG 1.1//EN"
 "http://www.w3.org/Graphics/SVG/1.1/DTD/svg11.dtd">
<!-- Generated by graphviz version 12.1.1 (20240910.0053)
 -->
<!-- Title: INFRA Pages: 1 -->
<svg width="208pt" height="188pt"
 viewBox="0.00 0.00 208.39 188.00" xmlns="http://www.w3.org/2000/svg" xmlns:xlink="http://www.w3.org/1999/xlink">
<g id="graph0" class="graph" transform="scale(1 1) rotate(0) translate(4 184)">
<title>INFRA</title>
<polygon fill="white" stroke="none" points="-4,4 -4,-184 204.39,-184 204.39,4 -4,4"/>
<!-- VercelNodejsFunction -->
<g id="node1" class="node">
<title>VercelNodejsFunction</title>
<path fill="#b7e0ff" stroke="black" stroke-width="2" d="M188.39,-72C188.39,-72 12,-72 12,-72 6,-72 0,-66 0,-60 0,-60 0,-12 0,-12 0,-6 6,0 12,0 12,0 188.39,0 188.39,0 194.39,0 200.39,-6 200.39,-12 200.39,-12 200.39,-60 200.39,-60 200.39,-66 194.39,-72 188.39,-72"/>
<text text-anchor="middle" x="100.2" y="-40.2" font-family="Arial" font-size="14.00">VercelNodejsFunction</text>
<text text-anchor="middle" x="100.2" y="-23.4" font-family="Arial" font-size="14.00">(Vercel::Serverless::Function)</text>
</g>
<!-- VercelApiRoute -->
<g id="node2" class="node">
<title>VercelApiRoute</title>
<path fill="#e78f81" stroke="black" stroke-width="2" d="M181.4,-180C181.4,-180 18.99,-180 18.99,-180 12.99,-180 6.99,-174 6.99,-168 6.99,-168 6.99,-120 6.99,-120 6.99,-114 12.99,-108 18.99,-108 18.99,-108 181.4,-108 181.4,-108 187.4,-108 193.4,-114 193.4,-120 193.4,-120 193.4,-168 193.4,-168 193.4,-174 187.4,-180 181.4,-180"/>
<text text-anchor="middle" x="100.2" y="-148.2" font-family="Arial" font-size="14.00">VercelApiRoute</text>
<text text-anchor="middle" x="100.2" y="-131.4" font-family="Arial" font-size="14.00">(Vercel::Routing::ApiRoute)</text>
</g>
<!-- VercelApiRoute&#45;&gt;VercelNodejsFunction -->
<g id="edge1" class="edge">
<title>VercelApiRoute&#45;&gt;VercelNodejsFunction</title>
<path fill="none" stroke="black" d="M100.2,-107.7C100.2,-99.93 100.2,-91.57 100.2,-83.43"/>
<polygon fill="black" stroke="black" points="103.7,-83.66 100.2,-73.66 96.7,-83.66 103.7,-83.66"/>
</g>
</g>
</svg>
